<svg width="25" height="24" viewBox="0 0 25 24" fill="none" xmlns="http://www.w3.org/2000/svg">
<path d="M17.4375 9.40008L8.4375 4.21008" stroke="#BA366F" stroke-width="2" stroke-linecap="round" stroke-linejoin="round"/>
<path d="M21.9375 16V8.00002C21.9371 7.6493 21.8446 7.30483 21.669 7.00119C21.4935 6.69754 21.2412 6.44539 20.9375 6.27002L13.9375 2.27002C13.6335 2.09449 13.2886 2.00208 12.9375 2.00208C12.5864 2.00208 12.2415 2.09449 11.9375 2.27002L4.9375 6.27002C4.63376 6.44539 4.38148 6.69754 4.20596 7.00119C4.03044 7.30483 3.93786 7.6493 3.9375 8.00002V16C3.93786 16.3507 4.03044 16.6952 4.20596 16.9989C4.38148 17.3025 4.63376 17.5547 4.9375 17.73L11.9375 21.73C12.2415 21.9056 12.5864 21.998 12.9375 21.998C13.2886 21.998 13.6335 21.9056 13.9375 21.73L20.9375 17.73C21.2412 17.5547 21.4935 17.3025 21.669 16.9989C21.8446 16.6952 21.9371 16.3507 21.9375 16Z" stroke="#BA366F" stroke-width="2" stroke-linecap="round" stroke-linejoin="round"/>
<path d="M4.20703 6.96008L12.937 12.0101L21.667 6.96008" stroke="#BA366F" stroke-width="2" stroke-linecap="round" stroke-linejoin="round"/>
<path d="M12.9375 22.08V12" stroke="#BA366F" stroke-width="2" stroke-linecap="round" stroke-linejoin="round"/>
</svg>
