<svg width="16" height="16" viewBox="0 0 16 16" fill="none" xmlns="http://www.w3.org/2000/svg">
<path fill-rule="evenodd" clip-rule="evenodd" d="M7.89634 14.4411C5.43513 14.4411 3.33331 14.0581 3.33331 12.5243C3.33331 10.9904 5.4218 9.57446 7.89634 9.57446C10.3576 9.57446 12.4594 10.9767 12.4594 12.5106C12.4594 14.0438 10.3709 14.4411 7.89634 14.4411Z" stroke="#0A0A0A" stroke-width="1.5" stroke-linecap="round" stroke-linejoin="round"/>
<path fill-rule="evenodd" clip-rule="evenodd" d="M7.89178 7.44894C9.50694 7.44894 10.816 6.13985 10.816 4.5247C10.816 2.90955 9.50694 1.59985 7.89178 1.59985C6.27663 1.59985 4.96694 2.90955 4.96694 4.5247C4.96148 6.1344 6.26148 7.44349 7.87118 7.44894C7.87845 7.44894 7.88512 7.44894 7.89178 7.44894Z" stroke="#0A0A0A" stroke-width="1.5" stroke-linecap="round" stroke-linejoin="round"/>
</svg>
