<svg width="16" height="17" viewBox="0 0 16 17" fill="none" xmlns="http://www.w3.org/2000/svg">
<path fill-rule="evenodd" clip-rule="evenodd" d="M7.89636 14.9413C5.43515 14.9413 3.33333 14.5583 3.33333 13.0245C3.33333 11.4906 5.42181 10.0746 7.89636 10.0746C10.3576 10.0746 12.4594 11.4769 12.4594 13.0107C12.4594 14.544 10.3709 14.9413 7.89636 14.9413Z" stroke="#0A0A0A" stroke-opacity="0.6" stroke-width="1.5" stroke-linecap="round" stroke-linejoin="round"/>
<path fill-rule="evenodd" clip-rule="evenodd" d="M7.89154 7.94912C9.50669 7.94912 10.8158 6.64003 10.8158 5.02488C10.8158 3.40973 9.50669 2.10003 7.89154 2.10003C6.27639 2.10003 4.96669 3.40973 4.96669 5.02488C4.96124 6.63458 6.26124 7.94367 7.87093 7.94912C7.87821 7.94912 7.88487 7.94912 7.89154 7.94912Z" stroke="#0A0A0A" stroke-opacity="0.6" stroke-width="1.5" stroke-linecap="round" stroke-linejoin="round"/>
</svg>
