<svg width="80" height="80" viewBox="0 0 80 80" fill="none" xmlns="http://www.w3.org/2000/svg">
<g clip-path="url(#clip0)">
<path d="M76.6076 31.9669H73.143L70.4659 40.3228H70.4186L67.6533 31.9669H64.0627L68.362 43.4251C68.4556 43.6651 68.5036 43.9203 68.5037 44.1779C68.5021 44.4236 68.4484 44.6662 68.3462 44.8897C68.2522 45.1075 68.1049 45.2981 67.9179 45.444C67.7067 45.6006 67.4556 45.6945 67.1934 45.7149C66.8635 45.7221 66.5333 45.7115 66.2045 45.6834L65.2312 45.5952V48.3606C65.5746 48.3952 65.9147 48.4235 66.258 48.4487C66.6013 48.4739 66.9446 48.4802 67.2848 48.4802C67.948 48.4989 68.6094 48.4041 69.2407 48.1999C69.7601 48.0224 70.2246 47.7131 70.5887 47.3023C70.9841 46.8378 71.2895 46.3038 71.4895 45.7275L76.6076 31.9669Z" fill="white"/>
<path d="M60.7086 39.4566C60.7096 39.6481 60.6991 39.8396 60.6771 40.0298C60.649 40.2802 60.592 40.5265 60.507 40.7637C60.4105 41.029 60.2664 41.2745 60.0818 41.4881C59.8617 41.7338 59.588 41.9257 59.2818 42.0487C58.8695 42.2042 58.4311 42.279 57.9905 42.2692C57.6471 42.2755 57.3046 42.2331 56.9732 42.1432C56.68 42.0681 56.4178 41.9028 56.2236 41.6708C56.0186 41.3938 55.9161 41.0542 55.9338 40.7101C55.9205 40.3665 56.0201 40.0281 56.2173 39.7464C56.4074 39.505 56.6571 39.3173 56.9417 39.2015C57.2562 39.0721 57.5835 38.9761 57.918 38.9149C58.2677 38.855 58.6236 38.8046 58.9763 38.7574C59.3085 38.7145 59.6377 38.6514 59.9621 38.5684C60.2336 38.504 60.4875 38.3803 60.7055 38.2062L60.7086 39.4566ZM56.2991 35.7243C56.3038 35.4533 56.3667 35.1865 56.4835 34.942C56.6003 34.6974 56.7684 34.4809 56.9763 34.307C57.4286 33.9965 57.9721 33.8468 58.5196 33.8818C58.8859 33.8713 59.2521 33.9072 59.6094 33.9889C59.9161 34.0566 60.1918 34.2238 60.3936 34.4645C60.6161 34.7758 60.7271 35.1531 60.7086 35.5353C60.7149 35.6829 60.6886 35.8299 60.6314 35.9661C60.5742 36.1022 60.4876 36.224 60.3779 36.3227C60.12 36.527 59.8181 36.6683 59.496 36.7353C59.0811 36.8347 58.6603 36.9073 58.2362 36.9527C57.7637 37.0073 57.2671 37.0703 56.7464 37.1416C56.2299 37.2075 55.7192 37.3128 55.2188 37.4566C54.7427 37.5908 54.2924 37.8037 53.8865 38.0865C53.4847 38.3602 53.1594 38.7321 52.9417 39.1668C52.6985 39.6933 52.581 40.2691 52.5984 40.8487C52.5855 41.4088 52.6929 41.9651 52.9133 42.4802C53.1146 42.9246 53.4191 43.3144 53.8015 43.6172C54.1911 43.9273 54.6387 44.1565 55.118 44.2912C55.6466 44.4413 56.1938 44.5156 56.7432 44.5117C57.2444 44.5125 57.7445 44.464 58.2362 44.3668C58.7257 44.269 59.2001 44.107 59.6472 43.8849C60.0979 43.6611 60.5069 43.3618 60.8566 42.9999C60.8682 43.2012 60.8956 43.4013 60.9385 43.5983C60.9826 43.7999 61.033 43.992 61.0929 44.181H64.4944C64.378 43.9697 64.2961 43.741 64.2519 43.5038C64.1851 43.1924 64.1399 42.8766 64.1165 42.5589C64.085 42.2093 64.0724 41.8471 64.0724 41.4723V35.107C64.0848 34.5937 63.9769 34.0846 63.7574 33.6204C63.5527 33.2232 63.257 32.88 62.8944 32.6188C62.5153 32.353 62.0965 32.1489 61.6535 32.0141C61.1827 31.8634 60.6986 31.7579 60.2078 31.6991C59.7121 31.6438 59.2136 31.6175 58.7149 31.6204C58.1687 31.6196 57.6233 31.6606 57.0834 31.7432C56.564 31.8242 56.055 31.9615 55.5653 32.1527C55.1026 32.3366 54.672 32.5928 54.2897 32.9117C53.908 33.2321 53.5979 33.6291 53.3795 34.0771C53.1388 34.5881 53.0008 35.1413 52.9732 35.7054L56.2991 35.7243Z" fill="white"/>
<path d="M47.3639 40.2346H47.3166L45.2379 31.9669H41.978L39.9466 40.2598H39.8993L37.6537 31.9669H34.1104L37.9844 44.181H41.4584L43.5371 35.9826H43.5843L45.7576 44.181H49.2064L53.0552 31.9669H49.6064L47.3639 40.2346Z" fill="white"/>
<path d="M25.3953 39.9764L26.693 38.7229L30.0473 44.1811H34.1103L28.9859 36.4551L33.5906 31.9669H29.6221L25.3953 36.3606V27.3118H22.041V44.1811H25.3953V39.9764Z" fill="white"/>
<path d="M17.1021 27.3118H20.4564V44.1779H17.1021V27.3118Z" fill="white"/>
<path d="M12.1887 27.3118H15.543V30.074H12.1887V27.3118Z" fill="white"/>
<path d="M12.1887 31.9669H15.543V44.181H12.1887V31.9669Z" fill="white"/>
<path d="M0 40.2126C0.0174455 40.7932 0.145733 41.3652 0.377953 41.8976C0.586901 42.3601 0.886826 42.7757 1.25984 43.1197C1.63259 43.4559 2.05826 43.7283 2.51969 43.926C3.01021 44.135 3.52416 44.2841 4.0504 44.3701C4.6029 44.464 5.16243 44.5103 5.72284 44.5087C6.27579 44.5096 6.82784 44.4642 7.37324 44.3732C7.89374 44.2876 8.40227 44.1407 8.8882 43.9354C9.34988 43.7424 9.77578 43.473 10.148 43.1386C10.5131 42.8002 10.802 42.3879 10.9953 41.9291C11.2118 41.3963 11.3189 40.8254 11.3103 40.2504C11.3272 39.7548 11.2189 39.263 10.9953 38.8205C10.7861 38.4348 10.4881 38.1044 10.126 37.8567C9.74315 37.5909 9.32559 37.3789 8.88505 37.2268C8.41579 37.0632 7.93727 36.9275 7.45198 36.8205C6.96694 36.7102 6.5071 36.6126 6.0504 36.5055C5.63914 36.4253 5.23314 36.3201 4.83465 36.1905C4.51951 36.0964 4.22692 35.9388 3.97481 35.7276C3.79395 35.5623 3.67973 35.3366 3.65363 35.093C3.62753 34.8493 3.69135 34.6046 3.83308 34.4047C3.95415 34.2504 4.11388 34.1309 4.29607 34.0583C4.49041 33.9811 4.69352 33.9282 4.9008 33.9008C5.10351 33.876 5.30761 33.8645 5.51182 33.8661C5.88488 33.8661 6.25606 33.9191 6.61418 34.0236C6.92882 34.1116 7.21181 34.2875 7.42993 34.5307C7.65542 34.8195 7.78336 35.1724 7.79529 35.5386H10.9858C10.9424 34.878 10.7462 34.2365 10.4126 33.6646C10.1101 33.1681 9.69328 32.7513 9.19687 32.4488C8.68002 32.1484 8.11704 31.9356 7.53072 31.8189C6.89429 31.69 6.24618 31.6277 5.59686 31.6331C5.06987 31.6292 4.54337 31.666 4.02205 31.7433C3.52769 31.8106 3.04265 31.9343 2.57638 32.1118C2.1402 32.28 1.73555 32.5206 1.37953 32.8236C1.02998 33.1328 0.753499 33.5158 0.57008 33.9449C0.354786 34.4527 0.247524 34.9997 0.255119 35.5512C0.255798 36.0301 0.385252 36.5001 0.629922 36.9118C0.846814 37.2838 1.14775 37.5998 1.50866 37.8346C1.88984 38.0876 2.3029 38.2888 2.73701 38.4331C3.20258 38.5888 3.67689 38.7171 4.15749 38.8173C4.95539 38.9811 5.642 39.147 6.21733 39.315C6.67751 39.4302 7.11509 39.6218 7.51182 39.8819C7.64914 39.9721 7.76188 40.0951 7.83995 40.2396C7.91801 40.3842 7.95894 40.5459 7.95907 40.7102C7.96571 40.9718 7.89445 41.2294 7.75434 41.4504C7.61792 41.652 7.43547 41.8183 7.22206 41.9354C7.00007 42.0558 6.76114 42.1418 6.5134 42.1905C6.26601 42.2436 6.01365 42.27 5.76064 42.2693C5.44228 42.2694 5.12505 42.2314 4.81576 42.1559C4.52427 42.0823 4.24738 41.9599 3.99686 41.7937C3.75982 41.6307 3.56364 41.4151 3.42363 41.1638C3.27451 40.8713 3.19782 40.5472 3.20001 40.2189L0 40.2126Z" fill="white"/>
<path d="M80.0003 23L77.5751 29.3685H31.72C32.4696 27.9354 33.9247 27.1638 36.7593 26.5591C41.8932 25.4661 50.8507 24.263 60.2774 26.2441C74.816 29.3213 77.8585 23.7465 78.3719 23.2331L80.0003 23Z" fill="white"/>
<path d="M58.0789 54.3008C58.0864 54.6716 58.1757 55.0362 58.3404 55.3685C58.4899 55.6531 58.706 55.8973 58.9703 56.0803C59.2438 56.2664 59.5491 56.4009 59.8711 56.4772C60.226 56.5615 60.5897 56.6028 60.9545 56.6C61.2321 56.5998 61.5091 56.5766 61.7829 56.5307C62.0519 56.4876 62.3151 56.4137 62.5671 56.3102C62.8058 56.2134 63.0271 56.0783 63.2222 55.9102C63.4146 55.7426 63.5682 55.5352 63.6726 55.3024C63.7873 55.0371 63.8442 54.7504 63.8396 54.4614C63.8474 54.1768 63.7824 53.8949 63.6506 53.6425C63.5298 53.4242 63.358 53.2383 63.1498 53.1008C62.9301 52.9542 62.6917 52.8377 62.4411 52.7543C62.1725 52.6655 61.8991 52.5919 61.6222 52.5339L60.838 52.3575C60.5953 52.3042 60.3565 52.2347 60.123 52.1496C59.9294 52.0827 59.7522 51.9753 59.6033 51.8346C59.5385 51.7711 59.4871 51.6951 59.4525 51.6112C59.4178 51.5273 59.4006 51.4372 59.4018 51.3465C59.3983 51.1941 59.4448 51.0448 59.5341 50.9213C59.6235 50.806 59.7405 50.715 59.8742 50.6567C60.0224 50.589 60.1793 50.5423 60.3404 50.5181C60.5079 50.4902 60.6776 50.4776 60.8474 50.4803C61.0306 50.4782 61.2135 50.4972 61.3923 50.537C61.5654 50.5723 61.7315 50.6362 61.8837 50.726C62.0303 50.8147 62.1552 50.9352 62.249 51.0787C62.3501 51.2438 62.4106 51.4306 62.4254 51.6236H63.5403C63.5293 51.2654 63.4401 50.9139 63.2789 50.5937C63.1368 50.3282 62.9298 50.1028 62.6774 49.9386C62.4116 49.7736 62.1182 49.6584 61.8112 49.5984C61.4653 49.5268 61.1125 49.493 60.7592 49.4976C60.5182 49.4969 60.2776 49.5201 60.0411 49.5669C59.8056 49.6122 59.5762 49.6852 59.3577 49.7842C59.146 49.878 58.9504 50.0045 58.7781 50.159C58.6057 50.3141 58.4682 50.5042 58.375 50.7165C58.2726 50.9442 58.221 51.1914 58.2238 51.4409C58.2169 51.7238 58.283 52.0037 58.4159 52.2535C58.5385 52.4716 58.7113 52.6573 58.9199 52.7953C59.1415 52.9396 59.3807 53.055 59.6317 53.1386C59.8985 53.2262 60.1698 53.2997 60.4443 53.3591L61.2632 53.5386C61.5047 53.5925 61.7416 53.6652 61.9718 53.7559C62.1625 53.8267 62.3339 53.941 62.4726 54.0898C62.5997 54.235 62.6672 54.4229 62.6616 54.6158C62.6683 54.8017 62.6129 54.9845 62.5041 55.1354C62.4002 55.2745 62.261 55.3832 62.101 55.4504C61.9313 55.5243 61.7521 55.5741 61.5687 55.5984C61.3872 55.6248 61.204 55.6374 61.0207 55.6362C60.7964 55.638 60.5725 55.6158 60.3529 55.5701C60.1501 55.53 59.9553 55.4566 59.7766 55.3528C59.6087 55.2546 59.4679 55.116 59.3671 54.9496C59.2565 54.7579 59.1968 54.541 59.1939 54.3197L58.0789 54.3008ZM52.9356 52.411C52.9533 52.1576 53.0118 51.9088 53.1089 51.674C53.2011 51.4484 53.3334 51.2414 53.4994 51.063C53.6669 50.8847 53.8696 50.7431 54.0947 50.6472C54.5916 50.4459 55.1474 50.4459 55.6443 50.6472C55.8685 50.7356 56.0738 50.866 56.249 51.0315C56.4256 51.2132 56.5656 51.427 56.6616 51.6614C56.7645 51.8987 56.8232 52.1527 56.8348 52.411H52.9356ZM56.8065 54.3008C56.733 54.6951 56.5165 55.0484 56.1986 55.2929C55.8612 55.5248 55.4581 55.6419 55.049 55.6268C54.725 55.6298 54.4037 55.5677 54.1041 55.4441C53.8468 55.3338 53.6183 55.1656 53.4364 54.9528C53.2628 54.7436 53.1331 54.5015 53.0553 54.2409C52.9736 53.9663 52.9384 53.6799 52.9514 53.3937H58.0159C58.0269 53.1076 58.0143 52.821 57.9781 52.537C57.9407 52.2386 57.8753 51.9444 57.7829 51.6583C57.6916 51.3711 57.5658 51.0961 57.4081 50.8394C57.2505 50.5826 57.054 50.3521 56.8254 50.1559C56.5854 49.9513 56.31 49.7922 56.0128 49.6866C55.247 49.428 54.4128 49.4605 53.6695 49.7779C53.2855 49.9502 52.9421 50.2013 52.6616 50.515C52.3702 50.8409 52.1455 51.2207 52.0002 51.6331C51.8386 52.0858 51.7576 52.5634 51.7608 53.0441C51.7716 53.5303 51.85 54.0126 51.9939 54.4772C52.1203 54.8894 52.3269 55.2725 52.6018 55.6047C52.8731 55.9265 53.2161 56.18 53.6034 56.3449C54.0515 56.5299 54.5328 56.621 55.0175 56.6126C55.4859 56.6206 55.9507 56.5294 56.3813 56.3449C56.7726 56.1738 57.114 55.9061 57.3734 55.5669C57.6488 55.1937 57.8362 54.763 57.9215 54.3071L56.8065 54.3008ZM45.4679 56.452H46.5829V52.6063C46.5803 52.319 46.6228 52.0331 46.7089 51.7591C46.7844 51.5109 46.911 51.2813 47.0805 51.085C47.2524 50.8885 47.4682 50.7353 47.7104 50.6378C47.9922 50.5271 48.2928 50.4726 48.5955 50.4772C48.8515 50.4709 49.1051 50.5294 49.3325 50.6472C49.5335 50.7542 49.698 50.9187 49.8049 51.1197C49.9209 51.342 49.9783 51.5902 49.9719 51.8409V56.4331H51.0868V51.9764C51.0916 51.6391 51.0535 51.3025 50.9734 50.9748C50.9039 50.6885 50.7728 50.4209 50.5892 50.1905C50.3984 49.9601 50.1509 49.7831 49.8711 49.6772C49.5127 49.5484 49.1337 49.4864 48.753 49.4945C48.3036 49.487 47.86 49.5955 47.4648 49.8094C47.0745 50.0294 46.7562 50.3575 46.5482 50.7543H46.523V49.6551H45.4805L45.4679 56.452ZM44.4097 47.0693H43.2947V48.4331H44.4097V47.0693ZM43.2947 56.4394H44.4097V49.6551H43.2947V56.4394ZM41.0364 56.4394H42.1514V47.0693H41.0364V56.4394ZM37.2191 56.4394H38.3341V53.422C38.3197 52.9192 38.3998 52.4181 38.5703 51.9449C38.718 51.5507 38.9943 51.2178 39.3545 51C39.7965 50.7684 40.2925 50.6596 40.7908 50.685V49.4976C40.4303 49.4789 40.0696 49.5313 39.7293 49.652C39.4226 49.7658 39.145 49.9466 38.9167 50.1811C38.6599 50.4469 38.4472 50.752 38.2868 51.085H38.2616V49.6551H37.2128L37.2191 56.4394ZM36.1829 47.0693H35.0679V48.4331H36.1829V47.0693ZM35.0679 56.4394H36.1829V49.6551H35.0679V56.4394ZM34.6207 55.548C34.5595 55.5717 34.4962 55.5896 34.4317 55.6016C34.3814 55.6056 34.3308 55.6056 34.2805 55.6016C34.2356 55.6066 34.1901 55.6019 34.1472 55.5877C34.1043 55.5736 34.0649 55.5504 34.0317 55.5197C33.9753 55.4487 33.9433 55.3615 33.9404 55.2709C33.9328 55.1271 33.9328 54.9831 33.9404 54.8394V51.3465C33.946 51.0715 33.8956 50.7982 33.7923 50.5433C33.6993 50.339 33.5602 50.159 33.386 50.0173C33.2141 49.879 33.0189 49.7724 32.8097 49.7024C32.5863 49.6244 32.355 49.5716 32.1199 49.5449C31.8764 49.5158 31.6313 49.5021 31.386 49.5039C31.0235 49.5001 30.6618 49.5403 30.3089 49.6236C29.9877 49.6973 29.6825 49.8285 29.4081 50.011C29.1436 50.1898 28.9273 50.4311 28.7782 50.7134C28.6106 51.0436 28.5201 51.4076 28.5136 51.7779H29.6065C29.61 51.5001 29.6979 51.2299 29.8585 51.0031C30.0113 50.8127 30.2192 50.674 30.4538 50.6063C30.7289 50.5264 31.0146 50.4892 31.301 50.4961C31.4802 50.4933 31.6594 50.5059 31.8364 50.5339C32.006 50.5598 32.17 50.6141 32.3215 50.6945C32.4698 50.7718 32.594 50.8884 32.6805 51.0315C32.7757 51.2117 32.8224 51.4136 32.816 51.6173C32.8203 51.7049 32.8063 51.7925 32.7749 51.8744C32.7434 51.9563 32.6952 52.0307 32.6333 52.0929C32.4919 52.2153 32.3218 52.2998 32.1388 52.3386C31.8993 52.3987 31.6563 52.4439 31.4112 52.474C31.1372 52.5087 30.8443 52.5559 30.5325 52.6126C30.2463 52.6643 29.9635 52.7326 29.6853 52.8173C29.4247 52.8953 29.1773 53.0121 28.9514 53.1638C28.7308 53.3139 28.552 53.5177 28.4317 53.7559C28.2927 54.051 28.2258 54.3748 28.2364 54.7008C28.2303 55 28.2905 55.2969 28.4128 55.5701C28.5225 55.804 28.6879 56.0073 28.8947 56.1622C29.1087 56.3162 29.3504 56.4274 29.6065 56.4898C29.8903 56.5634 30.1826 56.5994 30.4758 56.5969C30.9275 56.6027 31.3756 56.5159 31.7923 56.3417C32.2063 56.1628 32.5729 55.89 32.8632 55.5449C32.8418 55.8345 32.9332 56.1212 33.1183 56.3449C33.2101 56.4315 33.3187 56.4982 33.4373 56.541C33.556 56.5838 33.6822 56.6018 33.8081 56.5937C33.9627 56.5968 34.1172 56.581 34.2679 56.5465C34.3878 56.5198 34.5027 56.4741 34.6081 56.411L34.6207 55.548ZM32.8097 54.0772C32.8066 54.2504 32.7669 54.4211 32.6931 54.578C32.6031 54.7658 32.478 54.9347 32.3246 55.0756C32.1416 55.2433 31.9276 55.3738 31.6947 55.4598C31.3912 55.5663 31.0714 55.6185 30.7498 55.6142C30.5359 55.6161 30.3232 55.5831 30.1199 55.5165C29.9322 55.4605 29.7647 55.351 29.638 55.2016C29.5091 55.0341 29.4424 54.827 29.449 54.6158C29.429 54.3861 29.4843 54.1561 29.6065 53.9606C29.7353 53.7942 29.906 53.6649 30.101 53.5858C30.3199 53.4972 30.5481 53.4338 30.7813 53.3969C31.0333 53.3559 31.2853 53.3213 31.5435 53.2898C31.7828 53.2613 32.0204 53.2203 32.2553 53.1669C32.4511 53.1262 32.6372 53.0481 32.8034 52.937L32.8097 54.0772Z" fill="white"/>
<path d="M23.8076 47.6205H22.6768V49.6551H21.5367V50.6378H22.6768V54.9559C22.6688 55.2108 22.6986 55.4655 22.765 55.7118C22.8122 55.8879 22.9109 56.0458 23.0485 56.1653C23.1946 56.2785 23.3668 56.3532 23.5493 56.3827C23.7936 56.4256 24.0415 56.4446 24.2894 56.4393H25.143V55.4409H24.6453C24.4689 55.4473 24.2923 55.4325 24.1194 55.3968C24.0672 55.3884 24.0176 55.3681 23.9745 55.3375C23.9314 55.3069 23.8958 55.2669 23.8705 55.2205C23.8194 55.0992 23.7978 54.9675 23.8076 54.8362V50.6378H25.1587V49.6551H23.8076V47.6205ZM15.9335 54.3008C15.941 54.6716 16.0303 55.0362 16.195 55.3685C16.3446 55.653 16.5607 55.8972 16.8249 56.0803C17.0984 56.2664 17.4037 56.4009 17.7257 56.4771C18.0806 56.5615 18.4443 56.6028 18.8091 56.6C19.0867 56.5997 19.3637 56.5766 19.6375 56.5307C19.9065 56.4876 20.1697 56.4136 20.4217 56.3102C20.6604 56.2134 20.8817 56.0783 21.0768 55.9102C21.2692 55.7426 21.4228 55.5352 21.5272 55.3023C21.6419 55.037 21.6988 54.7504 21.6942 54.4614C21.702 54.1768 21.637 53.8949 21.5052 53.6425C21.3844 53.4242 21.2126 53.2383 21.0044 53.1008C20.7847 52.9542 20.5463 52.8377 20.2957 52.7543C20.0271 52.6655 19.7537 52.5919 19.4768 52.5339L18.6926 52.3575C18.4412 52.3032 18.1939 52.2317 17.9524 52.1433C17.7588 52.0765 17.5816 51.9691 17.4328 51.8283C17.3709 51.7645 17.3224 51.6891 17.2899 51.6064C17.2575 51.5236 17.2418 51.4353 17.2438 51.3465C17.2404 51.1941 17.2868 51.0448 17.3761 50.9213C17.4655 50.806 17.5825 50.7151 17.7162 50.6567C17.8644 50.589 18.0213 50.5423 18.1824 50.5181C18.3499 50.4902 18.5196 50.4776 18.6894 50.4803C18.8726 50.4782 19.0555 50.4972 19.2343 50.537C19.4074 50.5723 19.5735 50.6362 19.7257 50.726C19.8724 50.8147 19.9972 50.9353 20.091 51.0787C20.1921 51.2438 20.2526 51.4306 20.2674 51.6236H21.3824C21.3654 51.2639 21.2697 50.9124 21.102 50.5937C20.9599 50.3282 20.7529 50.1028 20.5005 49.9386C20.2347 49.7737 19.9413 49.6584 19.6343 49.5984C19.2884 49.5268 18.9356 49.493 18.5824 49.4976C18.3413 49.4969 18.1007 49.5201 17.8642 49.5669C17.6287 49.6122 17.3993 49.6852 17.1808 49.7843C16.9691 49.878 16.7736 50.0045 16.6013 50.1591C16.4344 50.3156 16.3024 50.5056 16.2139 50.7165C16.1115 50.9442 16.0599 51.1914 16.0627 51.4409C16.0557 51.7238 16.1219 52.0037 16.2548 52.2535C16.3774 52.4716 16.5501 52.6573 16.7587 52.7953C16.9804 52.9396 17.2196 53.055 17.4705 53.1386C17.7374 53.2262 18.0086 53.2998 18.2831 53.359L19.102 53.5386C19.3436 53.5925 19.5805 53.6651 19.8107 53.7559C20.0013 53.8267 20.1728 53.941 20.3115 54.0898C20.4385 54.235 20.506 54.4229 20.5005 54.6157C20.5069 54.8016 20.4515 54.9844 20.343 55.1354C20.2391 55.2745 20.0999 55.3832 19.9398 55.4504C19.7702 55.5243 19.591 55.5741 19.4076 55.5984C19.2261 55.6248 19.0429 55.6374 18.8595 55.6362C18.6352 55.638 18.4114 55.6158 18.1918 55.5701C17.989 55.53 17.7942 55.4566 17.6154 55.3527C17.4475 55.2545 17.3068 55.116 17.206 54.9496C17.0953 54.7579 17.0357 54.541 17.0328 54.3197L15.9335 54.3008ZM10.7902 52.411C10.8016 52.1542 10.8548 51.9011 10.9477 51.6614C11.04 51.4359 11.1723 51.2289 11.3383 51.0504C11.5058 50.8721 11.7085 50.7305 11.9335 50.6346C12.4304 50.4333 12.9862 50.4333 13.4831 50.6346C13.7084 50.7268 13.9137 50.8615 14.0879 51.0315C14.2599 51.2142 14.3956 51.428 14.4879 51.6614C14.5907 51.8987 14.6494 52.1527 14.6611 52.411H10.7902ZM14.6611 54.3008C14.5876 54.6951 14.3711 55.0483 14.0532 55.2929C13.7158 55.5248 13.3127 55.6419 12.9036 55.6268C12.5796 55.6298 12.2583 55.5676 11.9587 55.4441C11.7014 55.3337 11.4729 55.1656 11.291 54.9527C11.1174 54.7435 10.9878 54.5014 10.9099 54.2409C10.8282 53.9663 10.7931 53.6799 10.806 53.3937H15.8548C15.8658 53.1076 15.8532 52.821 15.817 52.537C15.7796 52.2386 15.7142 51.9444 15.6217 51.6583C15.5305 51.3711 15.4046 51.0961 15.2469 50.8394C15.0894 50.5827 14.8928 50.3521 14.6642 50.1559C14.4273 49.9464 14.1541 49.782 13.8579 49.6709C13.0922 49.4123 12.258 49.4448 11.5146 49.7622C11.1307 49.9344 10.7873 50.1855 10.5068 50.4992C10.2153 50.8251 9.99056 51.2049 9.84535 51.6173C9.68372 52.0701 9.6027 52.5476 9.60598 53.0283C9.61672 53.5145 9.69517 53.9969 9.83905 54.4614C9.96549 54.8736 10.1721 55.2568 10.4469 55.589C10.7182 55.9107 11.0613 56.1642 11.4485 56.3291C11.8966 56.5141 12.3779 56.6052 12.8627 56.5968C13.3311 56.6048 13.7958 56.5136 14.2265 56.3291C14.6177 56.1581 14.9591 55.8904 15.2186 55.5512C15.494 55.1779 15.6813 54.7472 15.7666 54.2913L14.6611 54.3008ZM9.55558 49.6551H8.39968L6.87842 55.2079H6.85322L5.4359 49.6551H4.21385L2.83432 55.2047L1.28787 49.6551H0.0532227L2.23275 56.4393H3.43905L4.80283 51.0315H4.82803L6.2044 56.4268H7.38551L9.55558 49.6551Z" fill="white"/>
</g>
<defs>
<clipPath id="clip0">
<rect width="80" height="80" fill="white"/>
</clipPath>
</defs>
</svg>
