<svg width="80" height="80" viewBox="0 0 80 80" fill="none" xmlns="http://www.w3.org/2000/svg">
<path d="M68.3908 22H60.4598L48.3908 58.8965H56.092L58.1609 52.1149C60.9195 52.3448 66.8965 53.0345 72.0689 58.7816V58.8965H80L68.3908 22ZM59.8851 46.023L60.4598 44.0689C61.0345 42.2299 61.4943 40.6207 62.4138 37.2873C62.8736 35.5632 63.6782 32.4597 64.138 30.2758C64.8276 33.8391 65.1724 34.7586 65.6322 36.7126C66.092 38.5517 66.4368 40.3908 67.5862 44.0689L69.0805 49.2413C65.977 47.2873 62.7586 46.4827 59.8851 46.023ZM35.6322 58.8965H43.7931V22H35.6322V58.8965ZM21.0345 42.9195C21.0345 45.908 20.1149 51.1954 14.5977 51.1954C8.96553 51.1954 7.93106 45.908 7.93106 42.9195V22H0V42.5747C0 54.9885 9.31035 58.8965 14.5977 58.8965C21.4943 58.8965 29.0805 53.2643 29.0805 42.5747V22H21.0345V42.9195Z" fill="white"/>
</svg>
